<svg xmlns="http://www.w3.org/2000/svg" viewBox="0 0 370 1150"><path fill="black" fill-rule="evenodd" d="M 45,444 L 45,381 L 118,381 L 118,285 L 118,284 L 118,270 L 119,268 L 120,255 L 120,252 L 122,240 L 123,238 L 126,227 L 127,224 L 131,214 L 132,211 L 137,202 L 139,198 L 144,190 L 147,187 L 153,179 L 156,176 L 163,170 L 166,168 L 174,162 L 178,160 L 187,155 L 190,154 L 200,150 L 203,148 L 214,145 L 217,145 L 228,142 L 231,142 L 243,141 L 246,140 L 259,140 L 260,140 L 335,140 L 335,203 L 261,203 L 249,203 L 239,204 L 230,206 L 222,208 L 216,211 L 210,214 L 205,218 L 201,222 L 197,227 L 193,232 L 190,237 L 187,244 L 185,253 L 183,262 L 182,273 L 182,285 L 182,381 L 315,381 L 315,444 L 182,444 L 182,900 L 118,900 L 118,444 Z"/></svg>
