<svg xmlns="http://www.w3.org/2000/svg" viewBox="0 0 630 1150"><path fill="black" fill-rule="evenodd" d="M 46,774 L 46,762 L 46,761 L 46,319 L 46,318 L 46,306 L 47,303 L 48,292 L 48,289 L 50,279 L 51,275 L 54,265 L 55,261 L 59,253 L 61,249 L 65,241 L 68,236 L 73,229 L 76,225 L 82,219 L 86,215 L 93,209 L 97,206 L 104,201 L 109,198 L 117,195 L 121,193 L 130,189 L 134,188 L 144,185 L 148,184 L 159,182 L 162,182 L 173,181 L 176,180 L 189,180 L 190,180 L 420,180 L 421,180 L 431,180 L 434,181 L 442,181 L 446,182 L 454,183 L 457,184 L 465,186 L 469,187 L 476,190 L 480,191 L 487,194 L 491,195 L 497,199 L 501,201 L 507,205 L 510,208 L 517,213 L 519,215 L 525,221 L 528,224 L 533,229 L 535,232 L 540,238 L 542,241 L 546,249 L 548,251 L 552,258 L 553,261 L 557,269 L 558,272 L 561,281 L 479,310 L 476,302 L 473,296 L 471,291 L 468,287 L 465,284 L 462,280 L 459,277 L 456,275 L 453,273 L 450,271 L 446,269 L 442,268 L 437,267 L 432,266 L 426,265 L 419,265 L 191,265 L 181,265 L 173,266 L 166,267 L 160,269 L 156,271 L 152,273 L 149,275 L 146,277 L 144,280 L 142,283 L 140,286 L 138,290 L 136,296 L 135,303 L 134,311 L 134,320 L 134,760 L 134,769 L 135,777 L 136,784 L 138,790 L 140,794 L 142,797 L 144,800 L 146,803 L 149,805 L 152,807 L 156,809 L 160,811 L 166,813 L 173,814 L 181,815 L 191,815 L 419,815 L 426,815 L 432,814 L 437,813 L 442,812 L 446,811 L 450,809 L 453,807 L 456,805 L 459,803 L 462,800 L 465,796 L 468,793 L 471,789 L 473,784 L 476,778 L 476,777 L 476,607 L 345,607 L 345,522 L 520,522 L 564,564 L 564,777 L 498,777 L 561,799 L 558,808 L 557,811 L 553,819 L 552,822 L 548,829 L 546,831 L 542,839 L 540,842 L 535,848 L 533,851 L 528,856 L 525,859 L 519,865 L 517,867 L 510,872 L 507,875 L 501,879 L 497,881 L 491,885 L 487,886 L 480,889 L 476,890 L 469,893 L 465,894 L 457,896 L 454,897 L 446,898 L 442,899 L 434,899 L 431,900 L 421,900 L 420,900 L 190,900 L 189,900 L 176,900 L 173,899 L 162,898 L 159,898 L 148,896 L 144,895 L 134,892 L 130,891 L 121,887 L 117,885 L 109,882 L 104,879 L 97,874 L 93,871 L 86,865 L 82,861 L 76,855 L 73,851 L 68,844 L 65,839 L 61,831 L 59,827 L 55,819 L 54,815 L 51,805 L 50,801 L 48,791 L 48,788 L 47,777 Z M 264,952 L 289,902 L 341,928 L 336,936 L 355,936 L 381,954 L 385,963 L 386,966 L 389,974 L 390,977 L 391,985 L 392,989 L 392,997 L 392,1001 L 391,1008 L 390,1013 L 388,1019 L 386,1024 L 383,1030 L 380,1035 L 376,1040 L 373,1044 L 368,1048 L 364,1051 L 358,1055 L 355,1057 L 347,1061 L 344,1062 L 336,1065 L 333,1066 L 323,1068 L 321,1069 L 310,1071 L 309,1071 L 297,1072 L 295,1073 L 282,1074 L 278,1016 L 291,1016 L 301,1014 L 310,1013 L 318,1011 L 324,1009 L 328,1006 L 331,1004 L 333,1003 L 334,1002 L 334,1001 L 335,1000 L 335,997 L 335,994 L 334,994 L 290,994 Z"/></svg>
