<svg xmlns="http://www.w3.org/2000/svg" viewBox="0 0 491 366">
  <path d="M 44 81 L 39 92 L 40 97 L 43 99 L 367 99 L 377 103 L 388 114 L 391 121 L 391 137 L 387 145 L 379 153 L 370 157 L 362 158 L 41 158 L 41 326 L 374 326 L 397 321 L 414 312 L 432 296 L 446 272 L 451 251 L 451 227 L 446 205 L 435 185 L 441 177 L 449 157 L 451 143 L 451 116 L 449 111 L 449 105 L 446 99 L 446 95 L 432 71 L 421 60 L 402 48 L 393 44 L 388 44 L 386 42 L 373 40 L 86 40 L 78 42 L 70 48 L 54 66 Z M 100 219 L 102 216 L 372 216 L 379 219 L 387 226 L 391 234 L 391 245 L 386 255 L 379 262 L 367 267 L 104 267 L 100 264 Z" fill="#000000" fill-rule="evenodd"/>
</svg>
