<svg xmlns="http://www.w3.org/2000/svg" viewBox="0 0 490 366">
  <path d="M 49 93 L 43 109 L 40 128 L 41 248 L 46 263 L 46 267 L 56 285 L 72 303 L 89 315 L 103 321 L 125 326 L 450 326 L 452 324 L 434 299 L 422 285 L 404 268 L 136 267 L 126 265 L 117 260 L 105 247 L 101 236 L 101 218 L 105 215 L 328 215 L 357 187 L 379 160 L 379 157 L 103 158 L 101 156 L 102 128 L 108 116 L 123 103 L 134 99 L 397 99 L 406 96 L 417 85 L 451 44 L 450 40 L 125 40 L 103 45 L 79 58 L 63 73 Z" fill="#000000" fill-rule="evenodd"/>
</svg>
