<svg xmlns="http://www.w3.org/2000/svg" viewBox="0 0 475 370">
  <path d="M 51 88 L 42 110 L 42 118 L 40 124 L 40 246 L 42 260 L 48 277 L 58 293 L 74 310 L 84 317 L 107 327 L 122 330 L 377 330 L 392 327 L 406 321 L 413 316 L 427 300 L 435 277 L 435 156 L 433 154 L 212 156 L 198 171 L 169 208 L 169 212 L 172 214 L 371 213 L 375 216 L 374 256 L 366 266 L 358 270 L 133 271 L 127 270 L 115 263 L 109 257 L 102 244 L 100 145 L 101 130 L 107 116 L 119 104 L 132 99 L 381 99 L 390 97 L 406 80 L 434 44 L 434 40 L 122 40 L 108 43 L 103 46 L 99 46 L 76 59 L 65 69 Z" fill="#000000" fill-rule="evenodd"/>
</svg>
