<svg xmlns="http://www.w3.org/2000/svg" viewBox="0 0 500 408">
  <path d="M 48 92 L 44 103 L 44 107 L 42 109 L 40 126 L 40 242 L 42 265 L 47 280 L 59 300 L 76 316 L 95 327 L 101 328 L 106 331 L 121 334 L 382 333 L 403 328 L 424 316 L 441 299 L 453 280 L 458 265 L 460 249 L 460 122 L 458 109 L 453 94 L 442 76 L 430 63 L 407 48 L 393 43 L 375 40 L 123 40 L 98 46 L 82 54 L 61 72 Z M 103 122 L 108 114 L 116 106 L 124 101 L 132 99 L 369 99 L 376 101 L 383 105 L 392 114 L 397 122 L 399 130 L 400 183 L 398 250 L 392 260 L 384 268 L 376 273 L 366 276 L 137 276 L 124 273 L 116 268 L 110 262 L 102 248 L 101 132 Z" fill="#000000" fill-rule="evenodd"/>
</svg>
