<svg xmlns="http://www.w3.org/2000/svg" viewBox="0 0 486 408">
  <path d="M 40 332 L 42 334 L 100 333 L 100 240 L 101 237 L 104 235 L 363 235 L 381 232 L 400 224 L 413 215 L 424 205 L 438 183 L 444 167 L 447 150 L 446 116 L 444 113 L 444 106 L 441 101 L 441 97 L 432 80 L 419 65 L 403 53 L 386 45 L 361 40 L 88 40 L 80 43 L 61 61 L 50 75 L 40 92 L 40 96 L 42 98 L 358 99 L 372 105 L 382 117 L 383 122 L 386 126 L 386 149 L 382 158 L 376 165 L 365 173 L 353 176 L 42 176 L 40 178 Z" fill="#000000" fill-rule="evenodd"/>
</svg>
