<svg xmlns="http://www.w3.org/2000/svg" viewBox="0 0 491 408">
  <path d="M 56 78 L 44 101 L 40 120 L 40 257 L 44 274 L 54 294 L 60 302 L 79 319 L 96 328 L 105 331 L 124 334 L 329 334 L 355 359 L 368 366 L 376 368 L 450 368 L 449 365 L 405 325 L 408 321 L 420 313 L 436 296 L 447 274 L 451 257 L 451 115 L 447 100 L 439 83 L 431 72 L 414 56 L 395 46 L 371 40 L 123 40 L 106 43 L 83 53 L 73 60 Z M 390 124 L 391 243 L 387 255 L 383 261 L 376 268 L 368 273 L 359 276 L 350 275 L 303 230 L 289 222 L 279 220 L 206 220 L 207 223 L 260 271 L 260 276 L 134 276 L 130 274 L 125 274 L 118 270 L 109 262 L 104 255 L 101 246 L 101 128 L 105 118 L 111 110 L 124 101 L 131 99 L 362 99 L 378 107 L 385 115 Z" fill="#000000" fill-rule="evenodd"/>
</svg>
