<svg xmlns="http://www.w3.org/2000/svg" viewBox="0 0 490 408">
  <path d="M 40 93 L 40 96 L 42 98 L 57 99 L 360 99 L 371 103 L 384 115 L 390 130 L 390 145 L 383 161 L 373 170 L 359 176 L 41 176 L 41 334 L 101 333 L 101 237 L 103 235 L 250 235 L 261 243 L 344 319 L 354 327 L 362 331 L 376 334 L 448 333 L 345 237 L 347 235 L 367 235 L 378 232 L 384 232 L 406 222 L 420 212 L 429 203 L 439 189 L 447 171 L 450 156 L 450 117 L 445 98 L 438 84 L 430 73 L 418 61 L 405 52 L 383 43 L 362 40 L 91 40 L 79 44 L 71 52 L 52 75 Z" fill="#000000" fill-rule="evenodd"/>
</svg>
