<svg xmlns="http://www.w3.org/2000/svg" viewBox="0 0 489 370">
  <path d="M 51 83 L 45 96 L 45 100 L 43 102 L 40 117 L 40 138 L 45 160 L 52 174 L 60 184 L 74 197 L 92 207 L 114 213 L 366 214 L 374 217 L 383 224 L 388 231 L 390 242 L 388 252 L 385 257 L 376 266 L 365 270 L 88 271 L 78 278 L 40 325 L 41 329 L 366 330 L 386 327 L 388 325 L 395 324 L 412 315 L 431 298 L 441 283 L 444 273 L 446 271 L 447 262 L 449 258 L 449 224 L 446 213 L 440 199 L 426 180 L 415 171 L 399 162 L 381 156 L 372 155 L 126 155 L 117 152 L 106 142 L 103 137 L 102 122 L 103 117 L 114 104 L 128 98 L 399 98 L 405 96 L 433 65 L 449 44 L 448 40 L 117 40 L 95 46 L 78 55 L 58 73 Z" fill="#000000" fill-rule="evenodd"/>
</svg>
