<svg xmlns="http://www.w3.org/2000/svg" viewBox="0 0 617 370">
  <path d="M 35 40 L 36 44 L 49 64 L 56 78 L 162 253 L 170 269 L 187 295 L 199 317 L 210 327 L 214 327 L 220 330 L 241 330 L 255 325 L 263 317 L 300 253 L 309 241 L 312 243 L 345 300 L 346 304 L 352 312 L 353 316 L 361 325 L 376 330 L 397 330 L 409 325 L 418 316 L 421 309 L 458 249 L 458 247 L 463 241 L 582 42 L 582 40 L 523 40 L 514 43 L 507 49 L 485 84 L 485 86 L 480 92 L 476 101 L 428 179 L 394 238 L 389 244 L 389 246 L 385 248 L 339 170 L 310 117 L 285 76 L 282 68 L 279 65 L 272 51 L 263 43 L 255 40 L 196 40 L 204 57 L 210 65 L 227 97 L 250 134 L 273 176 L 270 184 L 245 225 L 234 246 L 230 249 L 110 49 L 103 43 L 94 40 Z" fill="#000000" fill-rule="evenodd"/>
</svg>
